<?xml version="1.0" encoding="utf-8"?>
<!-- Generator: Adobe Illustrator 25.4.1, SVG Export Plug-In . SVG Version: 6.00 Build 0)  -->
<svg version="1.1" id="Capa_1" xmlns="http://www.w3.org/2000/svg" xmlns:xlink="http://www.w3.org/1999/xlink" x="0px" y="0px"
	 viewBox="0 0 21.2 28.5" style="enable-background:new 0 0 21.2 28.5;" xml:space="preserve">
<style type="text/css">
	.st0{fill:#FFFFFF;}
	.st1{fill-rule:evenodd;clip-rule:evenodd;}
</style>
<g>
	<path class="st0" d="M17.2,8.8c0,0-6.4,1.7-6.6,1.7C10.4,10.5,4,8.8,4,8.8v4l2.9,1.5l-1.7,4.2l1.6,2.9h3.9h3.9l1.6-2.9l-1.7-4.2
		l2.9-1.5V8.8z"/>
	<g>
		<g>
			<path class="st1" d="M19,10.9V4.4c0-0.4-0.3-0.7-0.7-0.7h-3.9l-4.8-3l0.5,1.2L8.5,1.7L9,2.2c0,0-2.3,1.5-2.3,1.5H2.9
				C2.5,3.7,2.2,4,2.2,4.4v6.5H0.5v3.2c0,0.1,0.1,0.2,0.2,0.2h0.9l-0.3,1.8l0.9-0.4V23c0,0.4,0.3,0.7,0.7,0.7h3.4l3.5,1.2
				c0,0-1.6,2.5-1.8,2.9c2-1.2,4.6-2.7,7-4.1h3.3c0.4,0,0.7-0.3,0.7-0.7v-7.4l0.9,0.5l-0.3-1.8h0.9c0.1,0,0.2-0.1,0.2-0.2v-3.2H19z
				 M17,12.8l-2.8,1.5l1.7,4.1l-1.5,2.8h-3.7H6.9l-1.5-2.8L7,14.3l-2.8-1.5V8.9c0,0,6.2,1.7,6.4,1.7c0.2,0,6.4-1.7,6.4-1.7V12.8z"/>
			<g>
				<path d="M10.3,14.8c0.1,0.1,0.2,0.1,0.3,0.1c0.1,0,0.2,0,0.3-0.1l1.4-0.9c0.2-0.1,0.2-0.3,0.1-0.5c-0.1-0.2-0.3-0.2-0.5-0.1
					l-1.2,0.8l-1.2-0.8c-0.2-0.1-0.4-0.1-0.5,0.1c-0.1,0.2-0.1,0.4,0.1,0.5L10.3,14.8z"/>
				<path d="M14.4,11.2h-0.3c0,0,0,0,0,0c0,0.4-0.3,0.7-0.7,0.7c-0.4,0-0.7-0.3-0.7-0.7c0,0,0,0,0,0H8.5c0,0,0,0,0,0
					c0,0.4-0.3,0.7-0.7,0.7c-0.4,0-0.7-0.3-0.7-0.7c0,0,0,0,0,0H6.8c-0.4,0-0.8,0.3-0.8,0.8c0,0.1,0,0.2,0.1,0.3L7.9,14
					c0.1-1,1.3-1.7,2.7-1.7c1.4,0,2.6,0.7,2.7,1.7l1.7-1.7c0-0.1,0.1-0.2,0.1-0.3C15.1,11.5,14.8,11.2,14.4,11.2z"/>
			</g>
		</g>
	</g>
</g>
</svg>
